<?xml version="1.0" encoding="utf-8"?>
<!-- Generator: Adobe Illustrator 22.0.1, SVG Export Plug-In . SVG Version: 6.00 Build 0)  -->
<svg version="1.1" id="레이어_1" xmlns="http://www.w3.org/2000/svg" xmlns:xlink="http://www.w3.org/1999/xlink" x="0px"
	 y="0px" viewBox="0 0 1366 768" style="enable-background:new 0 0 1366 768;" xml:space="preserve">
<style type="text/css">
	.st0{fill:#FAF2A7;}
</style>
<g>
	<path class="st0" d="M228.7,330.4c3.5-2.7,6.1-7.5,7.8-14.4c1.7-6.9,2.5-16.7,2.5-29.4V175.9c0-1.8-0.4-3.1-1.1-3.8
		c-0.8-0.7-2.4-1.3-4.9-1.8l-10.8-2.3v-5h83v5l-9.3,2c-2.5,0.5-4.1,1.1-4.9,1.8c-0.8,0.7-1.1,1.9-1.1,3.8v106
		c0,21-6.7,36.2-20.1,45.5c-13.4,9.3-31.2,14-53.4,14c-7,0-15-1-24.1-2.9c-9.1-1.9-17.1-4.5-24.1-7.6l5.8-44h6.5
		c2.2,13,4.8,23,7.9,29.9c3.1,6.9,6.7,11.6,10.8,14.1c4.1,2.5,9.2,3.8,15.4,3.8C220.4,334.4,225.2,333.1,228.7,330.4z"/>
	<path class="st0" d="M332.3,171.9c-0.8-0.7-2.4-1.3-4.9-1.8l-9.3-2v-5h81.5v5l-9.3,2c-2.5,0.5-4.1,1.1-4.9,1.8
		c-0.8,0.7-1.1,1.9-1.1,3.8v150c0,1.8,0.4,3.1,1.1,3.8c0.8,0.7,2.4,1.3,4.9,1.8l9.3,2v5h-81.5v-5l9.3-2c2.5-0.5,4.1-1.1,4.9-1.8
		c0.8-0.7,1.1-1.9,1.1-3.8v-150C333.4,173.8,333,172.6,332.3,171.9z"/>
	<path class="st0" d="M561.9,173.2c0-1.2-0.5-2.1-1.5-2.9s-2.2-1.2-3.5-1.4l-11.8-1v-4.8h41.5v5l-7.8,0.8c-2.7,0.2-4.5,0.7-5.5,1.6
		c-1,0.9-2.2,2.5-3.5,4.6l-47.8,82v68.5c0,1.8,0.4,3.1,1.1,3.8c0.8,0.7,2.4,1.3,4.9,1.8l9.3,2v5h-81.5v-5l9.3-2
		c2.5-0.5,4.1-1.1,4.9-1.8c0.8-0.7,1.1-1.9,1.1-3.8v-67l-46-83.5c-1.2-2-2.3-3.5-3.3-4.4c-1-0.9-2.3-1.5-4-1.6l-9.8-1v-5h81.3v5
		l-10,1c-2.3,0.2-3.5,1.2-3.5,3c0,1,0.3,2.1,1,3.3l40,75.5l44.5-76C561.7,173.9,561.9,173.3,561.9,173.2z"/>
	<path class="st0" d="M738.9,322.9c-11,12.2-28.8,18.3-53.3,18.3c-26.7,0-46.4-5.4-59.1-16.3c-12.8-10.8-19.1-28.4-19.1-52.8v-96.5
		c0-1.8-0.4-3.1-1.1-3.8c-0.8-0.7-2.4-1.3-4.9-1.8l-9.3-2v-5h81v5l-9,2c-2.3,0.5-3.9,1-4.6,1.6c-0.8,0.6-1.1,1.8-1.1,3.6v101.3
		c0,14.2,1,25.2,3,33c2,7.8,5.9,13.6,11.6,17.4s14.2,5.6,25.4,5.6c16,0,28.3-5.3,36.8-15.8s12.8-24.4,12.8-41.8v-99.5
		c0-1.8-0.4-3.1-1.1-3.8c-0.8-0.7-2.4-1.3-4.9-1.8l-9.3-2v-5h38v5l-9,2c-2.3,0.5-3.9,1-4.6,1.6c-0.8,0.6-1.1,1.8-1.1,3.6v97.8
		C755.6,294.2,749.9,310.7,738.9,322.9z"/>
	<path class="st0" d="M796.3,171.9c-0.8-0.7-2.4-1.3-4.9-1.8l-9.3-2v-5h69.3l80.5,101.5v-89.3c0-1.8-0.4-3-1.1-3.6
		c-0.8-0.6-2.3-1.1-4.6-1.6l-9-2v-5h38v5l-9.3,2c-2.5,0.5-4.1,1.1-4.9,1.8c-0.8,0.7-1.1,1.9-1.1,3.8v162.5h-9L805.4,179.4v146.5
		c0,1.8,0.4,3,1.1,3.6c0.8,0.6,2.3,1.1,4.6,1.6l9,2v5h-38v-5l9.3-2c2.5-0.5,4.1-1.1,4.9-1.8c0.8-0.7,1.1-1.9,1.1-3.8v-150
		C797.4,173.8,797,172.6,796.3,171.9z"/>
	<path class="st0" d="M102.7,580.4c3.5-2.7,6.1-7.5,7.8-14.4c1.7-6.9,2.5-16.7,2.5-29.4V425.9c0-1.8-0.4-3.1-1.1-3.8
		c-0.8-0.7-2.4-1.3-4.9-1.8l-10.8-2.3v-5h83v5l-9.3,2c-2.5,0.5-4.1,1.1-4.9,1.8c-0.8,0.7-1.1,1.9-1.1,3.8v106
		c0,21-6.7,36.2-20.1,45.5c-13.4,9.3-31.2,14-53.4,14c-7,0-15-1-24.1-2.9c-9.1-1.9-17.1-4.5-24.1-7.6l5.8-44h6.5
		c2.2,13,4.8,23,7.9,29.9c3.1,6.9,6.7,11.6,10.8,14.1c4.1,2.5,9.2,3.8,15.4,3.8C94.4,584.4,99.2,583.1,102.7,580.4z"/>
	<path class="st0" d="M200.4,581.2c2.5-0.5,4.1-1.1,4.9-1.8c0.8-0.7,1.1-1.9,1.1-3.8v-150c0-1.8-0.4-3.1-1.1-3.8
		c-0.8-0.7-2.4-1.3-4.9-1.8l-9.3-2v-5h154v48.8h-6.3c-3.5-10.8-6.8-19-9.9-24.5c-3.1-5.5-7.4-9.7-12.9-12.5
		c-5.5-2.8-13.3-4.3-23.3-4.3h-35.5v74.3h64.5v7.5h-64.5v78.3h38c9.8,0,17.6-1.5,23.3-4.5c5.7-3,10.1-7.3,13.4-13
		c3.3-5.7,6.6-13.9,10.1-24.8h6.5v49.8H191.2v-5L200.4,581.2z"/>
	<path class="st0" d="M538.9,431.5c16.8,14.3,25.3,37.3,25.3,69.1c0,31.8-8.4,54.9-25.3,69.1c-16.8,14.3-39.3,21.4-67.5,21.4
		c-28.2,0-50.7-7.1-67.5-21.4c-16.8-14.3-25.3-37.3-25.3-69.1c0-31.7,8.5-54.7,25.4-69c16.9-14.3,39.4-21.5,67.4-21.5
		C499.6,410.2,522.1,417.3,538.9,431.5z M494.8,575.7c5.4-5.5,9.1-14.2,11.1-26c2-11.8,3-28.2,3-49c0-20.8-1-37.2-3-49
		c-2-11.8-5.7-20.5-11.1-26c-5.4-5.5-13.2-8.3-23.4-8.3c-10.2,0-18,2.8-23.4,8.3c-5.4,5.5-9.1,14.2-11.1,26c-2,11.8-3,28.2-3,49
		c0,20.8,1,37.2,3,49c2,11.8,5.7,20.5,11.1,26c5.4,5.5,13.2,8.3,23.4,8.3C481.6,583.9,489.4,581.2,494.8,575.7z"/>
	<path class="st0" d="M598.8,421.9c-0.8-0.7-2.4-1.3-4.9-1.8l-9.3-2v-5h69.3l80.5,101.5v-89.3c0-1.8-0.4-3-1.1-3.6
		c-0.8-0.6-2.3-1.1-4.6-1.6l-9-2v-5h38v5l-9.3,2c-2.5,0.5-4.1,1.1-4.9,1.8c-0.8,0.7-1.1,1.9-1.1,3.8v162.5h-9L607.9,429.4v146.5
		c0,1.8,0.4,3,1.1,3.6c0.8,0.6,2.3,1.1,4.6,1.6l9,2v5h-38v-5l9.3-2c2.5-0.5,4.1-1.1,4.9-1.8c0.8-0.7,1.1-1.9,1.1-3.8v-150
		C599.9,423.8,599.5,422.6,598.8,421.9z"/>
	<path class="st0" d="M838.9,543c3.8,12.9,10.1,22.4,18.9,28.4s20.5,9,35.4,9h8v-61.5h-24.8v-7.5h68.3v65.8c-3.7,0.7-8,1.6-13.1,2.9
		c-5.1,1.3-9,2.2-11.6,2.9c-11,2.8-19.8,4.9-26.4,6.3c-6.6,1.3-12.7,2-18.4,2c-17.8,0-34-3-48.5-9.1c-14.5-6.1-26.2-16-35.1-29.9
		c-8.9-13.8-13.4-31.8-13.4-54c0-30.2,9.1-52.4,27.3-66.6c18.2-14.3,42.1-21.4,71.8-21.4c12.3,0,24.3,1.1,35.9,3.3
		c11.6,2.2,20.6,4.8,27.1,8l-3.5,43h-7c-4.7-14.2-11-25.5-19.1-34.1c-8.1-8.6-19.1-12.9-33.1-12.9c-15.8,0-27.2,6.2-34,18.6
		c-6.8,12.4-10.3,31-10.3,55.6C833.2,513,835.1,530.1,838.9,543z"/>
</g>
</svg>
